<?xml version="1.0" encoding="utf-8"?>
<!-- Generator: Adobe Illustrator 19.0.0, SVG Export Plug-In . SVG Version: 6.00 Build 0)  -->
<svg version="1.1" id="Layer_1" xmlns="http://www.w3.org/2000/svg" xmlns:xlink="http://www.w3.org/1999/xlink" x="0px" y="0px"
	 viewBox="0 0 96 96" style="enable-background:new 0 0 96 96;" xml:space="preserve">
<style type="text/css">
	.st0{fill:#333333;}
</style>
<g id="XMLID_2_">
	<path id="XMLID_10_" class="st0" d="M72.1,44.6c0.9,0,1.8,0.3,2.4,1s1,1.5,1,2.4s-0.3,1.8-1,2.4s-1.5,1-2.4,1h-0.4l-3.1,17.8
		c-0.1,0.8-0.5,1.5-1.2,2s-1.4,0.8-2.2,0.8H30.8c-0.8,0-1.6-0.3-2.2-0.8s-1-1.2-1.2-2l-3.1-17.8h-0.4c-0.9,0-1.8-0.3-2.4-1
		s-1-1.5-1-2.4s0.3-1.8,1-2.4s1.5-1,2.4-1H72.1z M33.5,66c0.5,0,0.9-0.2,1.2-0.6s0.5-0.8,0.4-1.2L34.3,53c0-0.5-0.2-0.9-0.6-1.2
		s-0.8-0.5-1.2-0.4c-0.5,0-0.9,0.2-1.2,0.6s-0.5,0.8-0.4,1.2l0.9,11.2c0,0.4,0.2,0.8,0.6,1.1c0.3,0.3,0.7,0.5,1.2,0.5H33.5z
		 M44.6,64.3V53.2c0-0.5-0.2-0.9-0.5-1.2s-0.7-0.5-1.2-0.5s-0.9,0.2-1.2,0.5s-0.5,0.7-0.5,1.2v11.2c0,0.5,0.2,0.9,0.5,1.2
		s0.7,0.5,1.2,0.5s0.9-0.2,1.2-0.5S44.6,64.8,44.6,64.3z M54.9,64.3V53.2c0-0.5-0.2-0.9-0.5-1.2s-0.7-0.5-1.2-0.5s-0.9,0.2-1.2,0.5
		s-0.5,0.7-0.5,1.2v11.2c0,0.5,0.2,0.9,0.5,1.2s0.7,0.5,1.2,0.5s0.9-0.2,1.2-0.5S54.9,64.8,54.9,64.3z M64.3,64.5l0.9-11.2
		c0-0.5-0.1-0.9-0.4-1.2s-0.7-0.6-1.2-0.6c-0.5,0-0.9,0.1-1.2,0.4s-0.6,0.7-0.6,1.2l-0.9,11.2c0,0.5,0.1,0.9,0.4,1.2S62,66,62.5,66
		h0.1c0.4,0,0.8-0.2,1.2-0.5C64.1,65.3,64.3,64.9,64.3,64.5z M33.3,31.8l-2.5,11.1h-3.5L30,31c0.3-1.6,1.1-2.9,2.4-3.9
		c1.3-1,2.7-1.5,4.3-1.5h4.5c0-0.5,0.2-0.9,0.5-1.2s0.7-0.5,1.2-0.5h10.3c0.5,0,0.9,0.2,1.2,0.5s0.5,0.7,0.5,1.2h4.5
		c1.6,0,3,0.5,4.3,1.5c1.3,1,2,2.3,2.4,3.9l2.7,11.8h-3.5l-2.5-11.1c-0.2-0.8-0.6-1.4-1.2-1.9s-1.3-0.8-2.1-0.8h-4.5
		c0,0.5-0.2,0.9-0.5,1.2s-0.7,0.5-1.2,0.5H42.8c-0.5,0-0.9-0.2-1.2-0.5s-0.5-0.7-0.5-1.2h-4.5c-0.8,0-1.5,0.3-2.1,0.8
		S33.5,31,33.3,31.8z"/>
</g>
</svg>
